<svg width="40" height="40" viewBox="0 0 90 83" fill="none" xmlns="http://www.w3.org/2000/svg">
<path d="M47.1845 25.545L17.8965 52.9726C16.8417 53.9444 16.249 55.2624 16.249 56.6366C16.249 58.0109 16.8417 59.3289 17.8965 60.3006C18.9514 61.2724 20.3822 61.8183 21.874 61.8183C23.3659 61.8183 24.7966 61.2724 25.8515 60.3006L60.7644 27.6913C61.8091 26.729 62.6377 25.5866 63.2031 24.3292C63.7685 23.0719 64.0595 21.7243 64.0595 20.3633C64.0595 19.0024 63.7685 17.6548 63.2031 16.3975C62.6377 15.1401 61.8091 13.9977 60.7644 13.0354C59.7197 12.073 58.4796 11.3097 57.1146 10.7889C55.7497 10.2681 54.2868 10 52.8095 10C51.3321 10 49.8692 10.2681 48.5043 10.7889C47.1394 11.3097 45.8992 12.073 44.8545 13.0354L9.9416 45.6446C6.77692 48.5599 4.99902 52.5138 4.99902 56.6366C4.99902 60.7594 6.77692 64.7134 9.9416 67.6286C13.1063 70.5439 17.3985 72.1817 21.874 72.1817C26.3496 72.1817 30.6418 70.5439 33.8065 67.6286L62.6532 41.09" stroke="#48535F" stroke-width="6" stroke-linecap="round" stroke-linejoin="round"/>
</svg>
