<svg width="90" height="90" viewBox="0 0 90 90" fill="none" xmlns="http://www.w3.org/2000/svg">
<path fill-rule="evenodd" clip-rule="evenodd" d="M58.125 45C58.125 52.2487 52.2487 58.125 45 58.125C37.7513 58.125 31.875 52.2487 31.875 45C31.875 37.7513 37.7513 31.875 45 31.875C52.2487 31.875 58.125 37.7513 58.125 45ZM61.875 45C61.875 54.3199 54.3199 61.875 45 61.875C35.6801 61.875 28.125 54.3199 28.125 45C28.125 35.6801 35.6801 28.125 45 28.125C54.3199 28.125 61.875 35.6801 61.875 45ZM41.7992 38.0492C42.5314 37.317 43.7186 37.317 44.4508 38.0492C45.183 38.7814 45.183 39.9686 44.4508 40.7008L42.0266 43.125H52.5C53.5356 43.125 54.375 43.9644 54.375 45C54.375 46.0356 53.5356 46.875 52.5 46.875H42.0266L44.4508 49.2992C45.183 50.0314 45.183 51.2186 44.4508 51.9508C43.7186 52.683 42.5314 52.683 41.7992 51.9508L36.1742 46.3258C35.442 45.5936 35.442 44.4064 36.1742 43.6742L41.7992 38.0492Z" fill="#222222"/>
</svg>
