<svg width="40" height="40" viewBox="0 0 40 40" fill="none" xmlns="http://www.w3.org/2000/svg">
<path fill-rule="evenodd" clip-rule="evenodd" d="M25.391 14.2661C25.391 17.9739 22.2892 20.9795 18.4627 20.9795C14.6362 20.9795 11.5343 17.9739 11.5343 14.2661C11.5343 10.5583 14.6362 7.55273 18.4627 7.55273C22.2892 7.55273 25.391 10.5583 25.391 14.2661ZM30.0099 14.2661C30.0099 20.4455 24.84 25.455 18.4627 25.455C12.0854 25.455 6.91545 20.4455 6.91545 14.2661C6.91545 8.08666 12.0854 3.07715 18.4627 3.07715C24.84 3.07715 30.0099 8.08666 30.0099 14.2661ZM6.97203 26.1047C7.29143 25.8657 7.67826 25.7184 8.08172 25.7052C9.26185 25.6665 9.86138 25.933 10.3223 26.4381C11.2119 27.4127 10.6272 28.9948 9.58101 29.8102C7.65747 31.3091 6.17019 33.2813 5.31269 35.5246H31.6104C30.7531 33.2817 29.2663 31.31 27.3434 29.8111C26.2973 28.9957 25.713 27.4131 26.6026 26.4386C27.0638 25.9333 27.6631 25.667 28.8432 25.7059C29.2462 25.7193 29.633 25.8666 29.9522 26.1053C33.6965 28.9073 36.2806 33.0474 36.9064 37.7674C37.069 38.9932 36.0194 40.0002 34.7441 40.0002H2.17923C0.903723 40.0002 -0.14592 38.9932 0.0166649 37.7674C0.642756 33.0472 3.22726 28.9066 6.97203 26.1047Z" fill="#222222"/>
</svg>
