<svg width="25" height="25" viewBox="0 0 25 25" fill="none" xmlns="http://www.w3.org/2000/svg">
<path fill-rule="evenodd" clip-rule="evenodd" d="M6.37405 3C6.92634 3 7.37405 3.44772 7.37405 4V7.37501C7.37405 7.92729 6.92634 8.37501 6.37405 8.37501C5.82177 8.37501 5.37405 7.92729 5.37405 7.37501V4C5.37405 3.44772 5.82177 3 6.37405 3ZM15.6233 6.37368H8.37402V7.37221C8.37402 8.47678 7.47859 9.37221 6.37402 9.37221C5.26945 9.37221 4.37402 8.47678 4.37402 7.37221V6.37368H3.5C2.67157 6.37368 2 7.04525 2 7.87368V9.06118V10.7487V21.4987C2 22.3271 2.67157 22.9987 3.5 22.9987H20.4991C21.3275 22.9987 21.9991 22.3271 21.9991 21.4987V10.7487V9.06118V7.87368C21.9991 7.04525 21.3275 6.37368 20.4991 6.37368H19.6233V7.37221C19.6233 8.47678 18.7279 9.37221 17.6233 9.37221C16.5187 9.37221 15.6233 8.47678 15.6233 7.37221V6.37368ZM4 11.7487V20.9987H19.9991V11.7487H4ZM18.6233 4C18.6233 3.44772 18.1756 3 17.6233 3C17.071 3 16.6233 3.44772 16.6233 4V7.37501C16.6233 7.92729 17.071 8.37501 17.6233 8.37501C18.1756 8.37501 18.6233 7.92729 18.6233 7.37501V4Z" fill="#222222"/>
</svg>
