<svg width="35" height="35" viewBox="0 0 92 84" fill="none" xmlns="http://www.w3.org/2000/svg">
<path d="M20.7607 75.5908L71.3805 74.8609" stroke="#48535F" stroke-width="6" stroke-linecap="round" stroke-linejoin="round"/>
<path d="M45.6246 44.3681C51.8371 44.2785 56.807 39.6004 56.7251 33.9192C56.6432 28.2381 51.5405 23.7053 45.3279 23.7948C39.1154 23.8844 34.1455 28.5625 34.2274 34.2436C34.3093 39.9248 39.412 44.4576 45.6246 44.3681Z" stroke="#48535F" stroke-width="6" stroke-linecap="round" stroke-linejoin="round"/>
<path d="M73.5984 33.6741C73.9321 56.819 46.0696 75.226 46.0696 75.226C46.0696 75.226 17.6879 57.6299 17.3542 34.4851C17.2559 27.6646 20.1244 21.0808 25.3288 16.182C30.5331 11.2832 37.647 8.47061 45.1055 8.36306C52.5639 8.25552 59.7559 10.8618 65.0994 15.6085C70.4428 20.3553 73.5 26.8536 73.5984 33.6741Z" stroke="#48535F" stroke-width="6" stroke-linecap="round" stroke-linejoin="round"/>
</svg>
