<svg width="23" height="26" viewBox="0 0 23 26" fill="none" xmlns="http://www.w3.org/2000/svg">
<path d="M5.12598 22.9668L17.4997 22.7884" stroke="#222222" stroke-width="2" stroke-linecap="round" stroke-linejoin="round"/>
<path d="M11.1829 13.8787C12.7015 13.8568 13.9132 12.496 13.8894 10.8393C13.8655 9.18266 12.615 7.8574 11.0964 7.8793C9.57777 7.90119 8.36604 9.26195 8.38993 10.9186C8.41382 12.5753 9.66427 13.9006 11.1829 13.8787Z" stroke="#222222" stroke-width="2" stroke-linecap="round" stroke-linejoin="round"/>
<path d="M18.0139 10.7795C18.1112 17.5288 11.3127 22.8774 11.3127 22.8774C11.3127 22.8774 4.36268 17.727 4.26536 10.9777C4.23668 8.98882 4.93343 7.07092 6.20233 5.64595C7.47123 4.22099 9.20834 3.40568 11.0315 3.3794C12.8547 3.35311 14.6146 4.11799 15.924 5.50578C17.2335 6.89357 17.9853 8.79058 18.0139 10.7795Z" stroke="#222222" stroke-width="2" stroke-linecap="round" stroke-linejoin="round"/>
</svg>
