<svg width="37" height="37" viewBox="0 0 90 83" fill="none" xmlns="http://www.w3.org/2000/svg">
<path d="M45 72.5434C63.6396 72.5434 78.75 58.6239 78.75 41.4533C78.75 24.2828 63.6396 10.3633 45 10.3633C26.3604 10.3633 11.25 24.2828 11.25 41.4533C11.25 58.6239 26.3604 72.5434 45 72.5434Z" stroke="#48535F" stroke-width="6" stroke-miterlimit="10"/>
<path d="M75.5851 53.6472L56.5001 42.8343C56.1655 42.6447 55.7916 42.5218 55.4024 42.4735L47.3802 41.4773C46.7778 41.4025 46.1653 41.5095 45.6344 41.7823C45.1036 42.055 44.6829 42.4789 44.4355 42.9903L39.6195 52.945C39.3956 53.4079 39.3239 53.9212 39.4135 54.4213C39.503 54.9214 39.7498 55.3863 40.1233 55.7584L46.7327 62.3439C47.0323 62.6424 47.2515 63.0017 47.3724 63.3928C47.4933 63.7838 47.5127 64.1955 47.4289 64.5947L46.0826 71.0058" stroke="#48535F" stroke-width="6" stroke-linecap="round" stroke-linejoin="round"/>
<path d="M22.8343 18.0098L19.6899 24.8592C19.4095 25.4699 19.394 26.1564 19.6466 26.7774L23.6863 36.7094C23.8518 37.1161 24.1255 37.478 24.4825 37.7618C24.8394 38.0455 25.2681 38.2421 25.729 38.3334L33.263 39.825C33.6811 39.9078 34.0731 40.0773 34.4094 40.3206C34.7456 40.5639 35.0172 40.8746 35.2035 41.2292L36.5415 43.7753C36.7717 44.2135 37.1313 44.583 37.579 44.8416C38.0268 45.1002 38.5445 45.2373 39.073 45.2373H43.7954" stroke="#48535F" stroke-width="6" stroke-linecap="round" stroke-linejoin="round"/>
<path d="M53.5993 11.3828L56.8807 16.7972C57.1909 17.309 57.3035 17.9026 57.2001 18.481C57.0967 19.0595 56.7834 19.5885 56.3115 19.9817L46.8506 27.8635C46.6901 27.9973 46.5133 28.1135 46.3237 28.2099L42.02 30.3993C41.6037 30.6111 41.1359 30.7222 40.6604 30.7222H33.1562C32.6028 30.7222 32.0617 30.8726 31.6006 31.1545C31.1396 31.4365 30.7791 31.8374 30.5642 32.3072L27.6367 38.7093" stroke="#48535F" stroke-width="6" stroke-linecap="round" stroke-linejoin="round"/>
</svg>
