<svg width="22" height="24" viewBox="0 0 22 24" fill="none" xmlns="http://www.w3.org/2000/svg">
<path d="M11 21C15.5563 21 19.25 16.9706 19.25 12C19.25 7.02944 15.5563 3 11 3C6.44365 3 2.75 7.02944 2.75 12C2.75 16.9706 6.44365 21 11 21Z" stroke="#222222" stroke-width="2" stroke-miterlimit="10"/>
<path d="M18.4761 15.5297L13.8109 12.3995C13.7291 12.3447 13.6377 12.3091 13.5426 12.2951L11.5816 12.0067C11.4343 11.9851 11.2846 12.016 11.1548 12.095C11.0251 12.174 10.9223 12.2966 10.8618 12.4447L9.68454 15.3264C9.62979 15.4604 9.61228 15.609 9.63417 15.7538C9.65606 15.8985 9.71639 16.0331 9.80769 16.1408L11.4233 18.0472C11.4965 18.1336 11.5501 18.2376 11.5797 18.3508C11.6092 18.464 11.614 18.5832 11.5935 18.6988L11.2644 20.5547" stroke="#222222" stroke-width="2" stroke-linecap="round" stroke-linejoin="round"/>
<path d="M5.58173 5.21387L4.81308 7.19665C4.74455 7.37345 4.74076 7.57218 4.8025 7.75193L5.78999 10.6271C5.83043 10.7448 5.89735 10.8496 5.98461 10.9317C6.07186 11.0139 6.17664 11.0708 6.28932 11.0972L8.13096 11.529C8.23315 11.5529 8.32899 11.602 8.41118 11.6724C8.49338 11.7429 8.55977 11.8328 8.60531 11.9355L8.93236 12.6725C8.98864 12.7994 9.07654 12.9063 9.18599 12.9812C9.29543 13.0561 9.422 13.0958 9.55117 13.0958H10.7055" stroke="#222222" stroke-width="2" stroke-linecap="round" stroke-linejoin="round"/>
<path d="M13.1023 3.29492L13.9044 4.86228C13.9802 5.01044 14.0077 5.18229 13.9825 5.34973C13.9572 5.51717 13.8806 5.67031 13.7652 5.78413L11.4526 8.06578C11.4133 8.10451 11.3701 8.13816 11.3238 8.16607L10.2718 8.79985C10.17 8.86116 10.0557 8.89331 9.93942 8.89331H8.10506C7.96978 8.89331 7.83752 8.93685 7.72482 9.01847C7.61212 9.10008 7.52399 9.21616 7.47148 9.35216L6.75586 11.2054" stroke="#222222" stroke-width="2" stroke-linecap="round" stroke-linejoin="round"/>
</svg>
