<svg width="22" height="22" viewBox="0 0 22 22" fill="none" xmlns="http://www.w3.org/2000/svg">
<path d="M11.9068 5.11347L16.7682 9.97479L18.3886 8.35435L13.5273 3.49304L11.9068 5.11347ZM1.935 21.1926L1.32656 18.9832L1.935 21.1926ZM0.526082 19.7837L2.73548 20.3921L0.526082 19.7837ZM2.37339 13.0751L4.58279 13.6835L2.37339 13.0751ZM8.64363 19.3453L8.0353 17.1359L8.64363 19.3453ZM20.3884 7.79255L22.2968 9.06121L20.3884 7.79255ZM18.6671 6.29242L7.52919 17.4304L10.7702 20.6713L21.9081 9.5333L18.6671 6.29242ZM4.28831 14.1895L15.4263 3.05155L12.1854 -0.189328L1.04744 10.9486L4.28831 14.1895ZM8.0353 17.1359L1.32656 18.9832L2.54344 23.4021L9.25206 21.5548L8.0353 17.1359ZM2.73548 20.3921L4.58279 13.6835L0.163999 12.4666L-1.68331 19.1754L2.73548 20.3921ZM15.1948 3.23878C15.2311 3.2146 15.5499 3.01992 15.9794 2.99471C16.2988 2.97592 16.938 3.02542 17.8157 3.90302L21.0566 0.662141C19.2828 -1.11161 17.3781 -1.67857 15.7109 -1.58071C14.1537 -1.48939 13.0432 -0.834546 12.6575 -0.578109L15.1948 3.23878ZM17.8157 3.90302C18.6934 4.78072 18.7428 5.41998 18.724 5.73933C18.6988 6.16879 18.5041 6.48756 18.4799 6.52388L22.2968 9.06121C22.5532 8.67553 23.2081 7.5651 23.2995 6.00791C23.3973 4.34061 22.8303 2.43589 21.0566 0.662141L17.8157 3.90302ZM1.32656 18.9832C2.18376 18.7472 2.97152 19.5349 2.73548 20.3921L-1.68331 19.1754C-2.39144 21.747 -0.0282731 24.1102 2.54344 23.4021L1.32656 18.9832ZM1.04744 10.9486C0.626457 11.3696 0.322009 11.8927 0.163999 12.4666L4.58279 13.6835C4.53008 13.8747 4.42868 14.0491 4.28831 14.1895L1.04744 10.9486ZM7.52919 17.4304C7.66955 17.29 7.84395 17.1886 8.0353 17.1359L9.25206 21.5548C9.82601 21.3967 10.3492 21.0922 10.7702 20.6713L7.52919 17.4304ZM21.9081 9.5333C22.0136 9.42788 22.1577 9.27067 22.2968 9.06121L18.4799 6.52388C18.5608 6.40219 18.6362 6.32347 18.6671 6.29242L21.9081 9.5333ZM15.4263 3.05155C15.3953 3.08248 15.3165 3.15788 15.1948 3.23878L12.6575 -0.578109C12.448 -0.43889 12.2908 -0.29486 12.1854 -0.189328L15.4263 3.05155Z" fill="#222222"/>
</svg>
