<svg width="100" height="100" viewBox="0 0 55 55" fill="none" xmlns="http://www.w3.org/2000/svg">
<mask id="mask0" mask-type="alpha" maskUnits="userSpaceOnUse" x="17" y="17" width="22" height="22">
<path d="M30.8065 18.4312C30.8438 18.394 30.883 18.3596 30.9268 18.3305C31.3489 18.0499 33.7855 16.6313 36.4368 19.2827C39.0883 21.9341 37.6696 24.3706 37.3891 24.7926C37.3599 24.8365 37.3256 24.8757 37.2884 24.913L26.1504 36.0509C26.0101 36.1913 25.8357 36.2928 25.6443 36.3454L18.9357 38.1927C18.0785 38.4287 17.2907 37.6411 17.5268 36.7838L19.3741 30.0752C19.4268 29.8838 19.5282 29.7094 19.6686 29.5692L30.8065 18.4312Z" fill="white"/>
</mask>
<g mask="url(#mask0)">
<path d="M28.9068 22.1135L33.7682 26.9748L35.3886 25.3543L30.5273 20.493L28.9068 22.1135ZM18.935 38.1926L18.3266 35.9832L18.935 38.1926ZM17.5261 36.7837L19.7355 37.3921L17.5261 36.7837ZM19.3734 30.0751L21.5828 30.6835L19.3734 30.0751ZM25.6436 36.3453L25.0353 34.1359L25.6436 36.3453ZM37.3884 24.7925L39.2968 26.0612L37.3884 24.7925ZM35.6671 23.2924L24.5292 34.4304L27.7702 37.6713L38.9081 26.5333L35.6671 23.2924ZM21.2883 31.1895L32.4263 20.0515L29.1854 16.8107L18.0474 27.9486L21.2883 31.1895ZM25.0353 34.1359L18.3266 35.9832L19.5434 40.4021L26.2521 38.5548L25.0353 34.1359ZM19.7355 37.3921L21.5828 30.6835L17.164 29.4666L15.3167 36.1754L19.7355 37.3921ZM32.1948 20.2388C32.2311 20.2146 32.5499 20.0199 32.9794 19.9947C33.2988 19.9759 33.938 20.0254 34.8157 20.903L38.0566 17.6621C36.2828 15.8884 34.3781 15.3214 32.7109 15.4193C31.1537 15.5106 30.0432 16.1655 29.6575 16.4219L32.1948 20.2388ZM34.8157 20.903C35.6934 21.7807 35.7428 22.42 35.724 22.7393C35.6988 23.1688 35.5041 23.4876 35.4799 23.5239L39.2968 26.0612C39.5532 25.6755 40.2081 24.5651 40.2995 23.0079C40.3973 21.3406 39.8303 19.4359 38.0566 17.6621L34.8157 20.903ZM18.3266 35.9832C19.1838 35.7472 19.9715 36.5349 19.7355 37.3921L15.3167 36.1754C14.6086 38.747 16.9717 41.1102 19.5434 40.4021L18.3266 35.9832ZM18.0474 27.9486C17.6265 28.3696 17.322 28.8927 17.164 29.4666L21.5828 30.6835C21.5301 30.8747 21.4287 31.0491 21.2883 31.1895L18.0474 27.9486ZM24.5292 34.4304C24.6696 34.29 24.8439 34.1886 25.0353 34.1359L26.2521 38.5548C26.826 38.3967 27.3492 38.0922 27.7702 37.6713L24.5292 34.4304ZM38.9081 26.5333C39.0136 26.4279 39.1577 26.2707 39.2968 26.0612L35.4799 23.5239C35.5608 23.4022 35.6362 23.3235 35.6671 23.2924L38.9081 26.5333ZM32.4263 20.0515C32.3953 20.0825 32.3165 20.1579 32.1948 20.2388L29.6575 16.4219C29.448 16.5611 29.2908 16.7051 29.1854 16.8107L32.4263 20.0515Z" fill="#222222"/>
</g>
</svg>
