<svg width="27" height="27" viewBox="0 0 75 74" fill="none" xmlns="http://www.w3.org/2000/svg">
<path d="M66.8819 15.2728L66.9222 15.2439L66.9237 15.1944C66.9612 13.9813 66.6117 12.8045 65.9479 11.9233L65.868 11.9836L65.9479 11.9233C65.2837 11.0415 64.3561 10.5255 63.3671 10.4996L12.9844 9.17879C11.9953 9.15286 11.0375 9.61938 10.3197 10.4649L10.3959 10.5294L10.3197 10.4649C9.60251 11.3099 9.18107 12.4665 9.14359 13.6796L9.14206 13.7291L9.18049 13.7601L37.2925 36.4644L37.3517 36.5122L37.4137 36.4676L66.8819 15.2728ZM8.98987 23.8595L8.83302 23.7326L8.82678 23.9347L7.75406 58.6582C7.71658 59.8712 8.06592 61.0482 8.72982 61.9293C9.39419 62.8109 10.3216 63.327 11.3107 63.3529L61.6934 64.6738C62.6825 64.6997 63.6405 64.233 64.358 63.3876C65.0751 62.5427 65.4967 61.3859 65.5342 60.1729L66.6069 25.4495L66.6132 25.248L66.449 25.3657L38.7532 45.21C38.7529 45.2103 38.7525 45.2105 38.7522 45.2107C38.2094 45.5798 37.6031 45.7641 36.9943 45.7482C36.3856 45.7322 35.7916 45.5164 35.2725 45.1195C35.2722 45.1193 35.2718 45.119 35.2715 45.1187L8.98987 23.8595ZM13.2561 0.382984L63.6388 1.7038C66.4673 1.77795 69.1429 3.25353 71.0738 5.81655C73.0053 8.38016 74.0313 11.8193 73.9213 15.3778L72.5318 60.3564C72.4219 63.9147 71.1852 67.2947 69.0986 69.7529C67.0126 72.2106 64.2503 73.5437 61.4217 73.4696L11.039 72.1487C8.21029 72.0746 5.53489 70.5989 3.60388 68.0359C1.67243 65.4723 0.646531 62.033 0.756459 58.4747L2.146 13.4962C2.25593 9.93765 3.49249 6.55784 5.57909 4.09956C7.6652 1.64185 10.4274 0.308827 13.2561 0.382984Z" fill="#48535F" stroke="#48535F" stroke-width="0.2"/>
</svg>
