<svg width="25" height="25" viewBox="0 0 25 25" fill="none" xmlns="http://www.w3.org/2000/svg">
<mask id="path-1-inside-1" fill="white">
<path d="M20.0537 3.57051L6.05854 3.20362C5.26316 3.18277 4.48931 3.52065 3.90721 4.14293C3.32512 4.76522 2.98246 5.62092 2.95463 6.52182L2.60483 17.8445C2.57701 18.7454 2.86627 19.6177 3.40901 20.2695C3.95175 20.9212 4.70349 21.2991 5.49887 21.32L19.4941 21.6869C20.2894 21.7077 21.0633 21.3698 21.6454 20.7475C22.2275 20.1253 22.5701 19.2695 22.598 18.3687L22.9478 7.04595C22.9756 6.14506 22.6863 5.27278 22.1436 4.62101C21.6008 3.96924 20.8491 3.59136 20.0537 3.57051ZM5.98858 5.46816L19.9838 5.83506C20.2489 5.84201 20.4995 5.96797 20.6804 6.18522C20.8613 6.40248 20.9577 6.69324 20.9485 6.99354L12.7805 12.3094L4.95394 6.57423C4.96322 6.27393 5.07744 5.9887 5.27147 5.78127C5.4655 5.57384 5.72345 5.46121 5.98858 5.46816ZM20.5987 18.3163C20.5894 18.6165 20.4751 18.9018 20.2811 19.1092C20.0871 19.3166 19.8291 19.4293 19.564 19.4223L5.56883 19.0554C5.3037 19.0485 5.05312 18.9225 4.8722 18.7053C4.6913 18.488 4.59487 18.1972 4.60415 17.897L4.87419 9.15581L12.1918 14.5263C12.3406 14.6297 12.5115 14.6866 12.6869 14.6912C12.8623 14.6957 13.0364 14.648 13.1914 14.5525L20.8687 9.57512L20.5987 18.3163Z"/>
</mask>
<path d="M20.0537 3.57051L6.05854 3.20362C5.26316 3.18277 4.48931 3.52065 3.90721 4.14293C3.32512 4.76522 2.98246 5.62092 2.95463 6.52182L2.60483 17.8445C2.57701 18.7454 2.86627 19.6177 3.40901 20.2695C3.95175 20.9212 4.70349 21.2991 5.49887 21.32L19.4941 21.6869C20.2894 21.7077 21.0633 21.3698 21.6454 20.7475C22.2275 20.1253 22.5701 19.2695 22.598 18.3687L22.9478 7.04595C22.9756 6.14506 22.6863 5.27278 22.1436 4.62101C21.6008 3.96924 20.8491 3.59136 20.0537 3.57051ZM5.98858 5.46816L19.9838 5.83506C20.2489 5.84201 20.4995 5.96797 20.6804 6.18522C20.8613 6.40248 20.9577 6.69324 20.9485 6.99354L12.7805 12.3094L4.95394 6.57423C4.96322 6.27393 5.07744 5.9887 5.27147 5.78127C5.4655 5.57384 5.72345 5.46121 5.98858 5.46816ZM20.5987 18.3163C20.5894 18.6165 20.4751 18.9018 20.2811 19.1092C20.0871 19.3166 19.8291 19.4293 19.564 19.4223L5.56883 19.0554C5.3037 19.0485 5.05312 18.9225 4.8722 18.7053C4.6913 18.488 4.59487 18.1972 4.60415 17.897L4.87419 9.15581L12.1918 14.5263C12.3406 14.6297 12.5115 14.6866 12.6869 14.6912C12.8623 14.6957 13.0364 14.648 13.1914 14.5525L20.8687 9.57512L20.5987 18.3163Z" fill="#48535F"/>
<path d="M20.6804 6.18522L23.7601 3.61822L23.76 3.61814L20.6804 6.18522ZM20.9485 6.99354L23.12 10.3423L24.8823 9.1954L24.9471 7.09836L20.9485 6.99354ZM12.7805 12.3094L10.4057 15.539L12.6304 17.1692L14.9521 15.6582L12.7805 12.3094ZM4.95394 6.57423L0.955319 6.4694L0.890534 8.56644L2.57915 9.80383L4.95394 6.57423ZM5.27147 5.78127L2.35556 3.05669L2.35542 3.05685L5.27147 5.78127ZM4.8722 18.7053L1.79295 21.2728L1.79302 21.2729L4.8722 18.7053ZM4.87419 9.15581L7.25136 5.92796L1.11126 1.42162L0.875565 9.05098L4.87419 9.15581ZM12.1918 14.5263L9.81459 17.7542L9.8564 17.7849L9.89899 17.8144L12.1918 14.5263ZM13.1914 14.5525L15.2775 17.9554L15.3176 17.9308L15.3571 17.9051L13.1914 14.5525ZM20.8687 9.57512L24.8673 9.67994L25.1023 2.07366L18.703 6.2225L20.8687 9.57512ZM20.1772 -0.42758L6.18205 -0.794473L5.93503 7.20171L19.9302 7.56861L20.1772 -0.42758ZM6.18205 -0.794473C4.15384 -0.847644 2.29812 0.0213257 0.991236 1.41844L6.82319 6.86743C6.6805 7.01997 6.37249 7.21318 5.93503 7.20171L6.18205 -0.794473ZM0.991236 1.41844C-0.300933 2.79982 -0.988034 4.60556 -1.04399 6.41699L6.95326 6.62664C6.95281 6.64123 6.9499 6.6649 6.9361 6.69935C6.92242 6.73352 6.89115 6.79477 6.82319 6.86743L0.991236 1.41844ZM-1.04399 6.41699L-1.39379 17.7397L6.60346 17.9494L6.95326 6.62664L-1.04399 6.41699ZM-1.39379 17.7397C-1.44975 19.5511 -0.87526 21.3899 0.329575 22.8368L6.48845 17.7021C6.55185 17.7783 6.57928 17.8411 6.59083 17.8759C6.60246 17.911 6.60391 17.9347 6.60346 17.9494L-1.39379 17.7397ZM0.329575 22.8368C1.54801 24.3 3.34703 25.2649 5.37535 25.3181L5.62238 17.3219C6.05995 17.3334 6.35548 17.5424 6.48845 17.7021L0.329575 22.8368ZM5.37535 25.3181L19.3705 25.685L19.6176 17.6888L5.62238 17.3219L5.37535 25.3181ZM19.3705 25.685C21.3988 25.7381 23.2545 24.8691 24.5613 23.472L18.7294 18.023C18.872 17.8705 19.18 17.6773 19.6176 17.6888L19.3705 25.685ZM24.5613 23.472C25.8535 22.0907 26.5406 20.2849 26.5966 18.4735L18.5993 18.2638C18.5998 18.2492 18.6027 18.2255 18.6165 18.1911C18.6302 18.1569 18.6614 18.0957 18.7294 18.023L24.5613 23.472ZM26.5966 18.4735L26.9464 7.15078L18.9491 6.94112L18.5993 18.2638L26.5966 18.4735ZM26.9464 7.15078C27.0024 5.33926 26.4278 3.50048 25.223 2.05372L19.0641 7.1883C19.0007 7.11224 18.9733 7.04948 18.9618 7.01466C18.9501 6.97955 18.9487 6.95575 18.9491 6.94112L26.9464 7.15078ZM25.223 2.05372C24.0045 0.590354 22.2054 -0.374411 20.1772 -0.42758L19.9302 7.56861C19.4927 7.55714 19.1972 7.34812 19.0641 7.1883L25.223 2.05372ZM5.86507 9.46626L19.8603 9.83315L20.1073 1.83697L6.1121 1.47007L5.86507 9.46626ZM19.8603 9.83315C18.8927 9.80779 18.0958 9.34698 17.6007 8.7523L23.76 3.61814C22.9032 2.58896 21.605 1.87623 20.1073 1.83697L19.8603 9.83315ZM17.6007 8.75222C17.12 8.17486 16.931 7.49936 16.9498 6.88871L24.9471 7.09836C24.9845 5.88711 24.6025 4.6301 23.7601 3.61822L17.6007 8.75222ZM18.7769 3.64476L10.6089 8.96059L14.9521 15.6582L23.12 10.3423L18.7769 3.64476ZM15.1553 9.07978L7.32874 3.34464L2.57915 9.80383L10.4057 15.539L15.1553 9.07978ZM8.95257 6.67906C8.93372 7.28933 8.70347 7.95408 8.18752 8.50568L2.35542 3.05685C1.45142 4.02331 0.992727 5.25853 0.955319 6.4694L8.95257 6.67906ZM8.18737 8.50584C7.65668 9.07314 6.83282 9.49163 5.86507 9.46626L6.1121 1.47007C4.61409 1.4308 3.27433 2.07455 2.35556 3.05669L8.18737 8.50584ZM16.6 18.2114C16.6189 17.601 16.8492 16.9363 17.3651 16.3847L23.1971 21.8337C24.1011 20.8673 24.5599 19.6321 24.5973 18.4211L16.6 18.2114ZM17.3651 16.3847C17.8958 15.8174 18.7196 15.3989 19.6875 15.4242L19.4405 23.4204C20.9386 23.4597 22.2784 22.8158 23.1971 21.8337L17.3651 16.3847ZM19.6875 15.4242L5.69234 15.0573L5.44531 23.0535L19.4405 23.4204L19.6875 15.4242ZM5.69234 15.0573C6.66047 15.0827 7.45692 15.5439 7.95139 16.1376L1.79302 21.2729C2.64932 22.301 3.94692 23.0142 5.44531 23.0535L5.69234 15.0573ZM7.95146 16.1377C8.43293 16.7158 8.62162 17.3917 8.60277 18.0018L0.605522 17.7921C0.568122 19.0027 0.949659 20.2603 1.79295 21.2728L7.95146 16.1377ZM8.60277 18.0018L8.87282 9.26064L0.875565 9.05098L0.605522 17.7921L8.60277 18.0018ZM2.49702 12.3837L9.81459 17.7542L14.5689 11.2985L7.25136 5.92796L2.49702 12.3837ZM9.89899 17.8144C10.6625 18.3447 11.5827 18.6635 12.5634 18.6892L12.8104 10.6931C13.4403 10.7096 14.0187 10.9147 14.4845 11.2382L9.89899 17.8144ZM12.5634 18.6892C13.5441 18.715 14.4824 18.4449 15.2775 17.9554L11.1054 11.1496C11.5904 10.851 12.1806 10.6765 12.8104 10.6931L12.5634 18.6892ZM15.3571 17.9051L23.0344 12.9277L18.703 6.2225L11.0258 11.1999L15.3571 17.9051ZM16.8701 9.47029L16.6 18.2114L24.5973 18.4211L24.8673 9.67994L16.8701 9.47029Z" fill="#222222" mask="url(#path-1-inside-1)"/>
</svg>
