<svg width="30" height="30" viewBox="0 0 72 72" fill="none" xmlns="http://www.w3.org/2000/svg">
<path fill-rule="evenodd" clip-rule="evenodd" d="M49.5125 21.8184C49.5125 29.0486 43.464 34.9095 36.0022 34.9095C28.5405 34.9095 22.492 29.0486 22.492 21.8184C22.492 14.5882 28.5405 8.72738 36.0022 8.72738C43.464 8.72738 49.5125 14.5882 49.5125 21.8184ZM58.5194 21.8184C58.5194 33.8683 48.438 43.6369 36.0022 43.6369C23.5665 43.6369 13.4851 33.8683 13.4851 21.8184C13.4851 9.76855 23.5665 0 36.0022 0C48.438 0 58.5194 9.76855 58.5194 21.8184ZM13.5955 44.9037C14.2183 44.4376 14.9726 44.1505 15.7594 44.1247C18.0606 44.0493 19.2297 44.569 20.1286 45.5539C21.8633 47.4542 20.723 50.5394 18.683 52.1295C14.9321 55.0523 12.0319 58.898 10.3597 63.2726H61.6402C59.9686 58.8989 57.0693 55.054 53.3197 52.1312C51.2797 50.5411 50.1403 47.4551 51.875 45.5547C52.7743 44.5694 53.943 44.0501 56.2442 44.1261C57.0301 44.1522 57.7844 44.4394 58.4068 44.905C65.7082 50.3688 70.7471 58.442 71.9675 67.6459C72.2845 70.0363 70.2377 72 67.7509 72H4.2495C1.76226 72 -0.284545 70.0363 0.0324966 67.6459C1.25338 58.4416 6.29316 50.3674 13.5955 44.9037Z" fill="#48535F"/>
</svg>
