<svg width="90" height="90" viewBox="0 0 90 90" fill="none" xmlns="http://www.w3.org/2000/svg">
<path fill-rule="evenodd" clip-rule="evenodd" d="M58.125 45C58.125 52.2487 52.2487 58.125 45 58.125C37.7513 58.125 31.875 52.2487 31.875 45C31.875 37.7513 37.7513 31.875 45 31.875C52.2487 31.875 58.125 37.7513 58.125 45ZM61.875 45C61.875 54.3199 54.3199 61.875 45 61.875C35.6801 61.875 28.125 54.3199 28.125 45C28.125 35.6801 35.6801 28.125 45 28.125C54.3199 28.125 61.875 35.6801 61.875 45ZM48.2008 38.0492C47.4686 37.317 46.2814 37.317 45.5492 38.0492C44.817 38.7814 44.817 39.9686 45.5492 40.7008L47.9734 43.125H37.5C36.4644 43.125 35.625 43.9644 35.625 45C35.625 46.0356 36.4644 46.875 37.5 46.875H47.9734L45.5492 49.2992C44.817 50.0314 44.817 51.2186 45.5492 51.9508C46.2814 52.683 47.4686 52.683 48.2008 51.9508L53.8258 46.3258C54.558 45.5936 54.558 44.4064 53.8258 43.6742L48.2008 38.0492Z" fill="#222222"/>
</svg>
