<svg width="22" height="24" viewBox="0 0 22 24" fill="none" xmlns="http://www.w3.org/2000/svg">
<path d="M13.7495 7.5L6.59023 15.4398C6.33237 15.7211 6.1875 16.1026 6.1875 16.5004C6.1875 16.8983 6.33237 17.2798 6.59023 17.5611C6.84809 17.8424 7.19783 18.0004 7.5625 18.0004C7.92717 18.0004 8.27691 17.8424 8.53477 17.5611L17.069 8.12132C17.3244 7.84274 17.527 7.51202 17.6652 7.14805C17.8034 6.78407 17.8745 6.39396 17.8745 6C17.8745 5.60603 17.8034 5.21592 17.6652 4.85195C17.527 4.48797 17.3244 4.15725 17.069 3.87868C16.8137 3.6001 16.5105 3.37913 16.1769 3.22836C15.8432 3.0776 15.4856 3 15.1245 3C14.7634 3 14.4058 3.0776 14.0721 3.22836C13.7385 3.37913 13.4353 3.6001 13.18 3.87868L4.64568 13.3185C3.8721 14.1624 3.4375 15.307 3.4375 16.5004C3.4375 17.6939 3.8721 18.8385 4.64568 19.6824C5.41927 20.5263 6.46848 21.0004 7.5625 21.0004C8.65652 21.0004 9.70573 20.5263 10.4793 19.6824L17.5307 12" stroke="#222222" stroke-width="2" stroke-linecap="round" stroke-linejoin="round"/>
</svg>
