<svg width="25" height="25" viewBox="0 0 25 25" fill="none" xmlns="http://www.w3.org/2000/svg">
<path fill-rule="evenodd" clip-rule="evenodd" d="M8.21429 8.05556C8.21429 6.21456 10.133 4.72222 12.5 4.72222C14.867 4.72222 16.7857 6.21456 16.7857 8.05556V10.2778H8.21429V8.05556ZM5.35714 10.2778V8.05556C5.35714 4.98733 8.55514 2.5 12.5 2.5C16.4449 2.5 19.6429 4.98733 19.6429 8.05556V10.2778C21.2209 10.2778 22.5 11.2727 22.5 12.5V20.2778C22.5 21.5051 21.2209 22.5 19.6429 22.5H5.35714C3.77914 22.5 2.5 21.5051 2.5 20.2778V12.5C2.5 11.2727 3.77914 10.2778 5.35714 10.2778ZM5.35714 20.2778V12.5H19.6429V20.2778H5.35714Z" fill="#222222"/>
</svg>
