<svg width="27" height="27" viewBox="0 0 72 72" fill="none" xmlns="http://www.w3.org/2000/svg">
<path fill-rule="evenodd" clip-rule="evenodd" d="M20.5714 20C20.5714 13.3724 27.4788 8 36 8C44.5212 8 51.4286 13.3724 51.4286 20V28H20.5714V20ZM10.2857 28V20C10.2857 8.9544 21.7985 0 36 0C50.2015 0 61.7143 8.9544 61.7143 20V28C67.3951 28 72 31.5816 72 36V64C72 68.4184 67.3951 72 61.7143 72H10.2857C4.60491 72 0 68.4184 0 64V36C0 31.5816 4.60491 28 10.2857 28ZM10.2857 64V36H61.7143V64H10.2857Z" fill="#48535F"/>
</svg>
