<svg width="25" height="25" viewBox="0 0 25 25" fill="none" xmlns="http://www.w3.org/2000/svg">
<path fill-rule="evenodd" clip-rule="evenodd" d="M16.4412 8.36371C16.4412 10.4725 14.677 12.1819 12.5007 12.1819C10.3243 12.1819 8.56016 10.4725 8.56016 8.36371C8.56016 6.25491 10.3243 4.54549 12.5007 4.54549C14.677 4.54549 16.4412 6.25491 16.4412 8.36371ZM19.0681 8.36371C19.0681 11.8783 16.1278 14.7274 12.5007 14.7274C8.87356 14.7274 5.93316 11.8783 5.93316 8.36371C5.93316 4.84916 8.87356 2 12.5007 2C16.1278 2 19.0681 4.84916 19.0681 8.36371ZM5.96534 15.0969C6.147 14.961 6.36701 14.8772 6.59648 14.8697C7.26768 14.8477 7.60866 14.9993 7.87084 15.2865C8.3768 15.8408 8.04422 16.7406 7.4492 17.2044C6.35519 18.0569 5.5093 19.1786 5.02159 20.4545H19.9784C19.4908 19.1788 18.6452 18.0574 17.5516 17.2049C16.9566 16.7412 16.6243 15.8411 17.1302 15.2868C17.3925 14.9994 17.7334 14.848 18.4046 14.8701C18.6338 14.8777 18.8538 14.9615 19.0353 15.0973C21.1649 16.6909 22.6346 19.0456 22.9905 21.7301C23.083 22.4273 22.486 23 21.7607 23H3.23944C2.51399 23 1.91701 22.4273 2.00948 21.7301C2.36557 19.0455 3.8355 16.6905 5.96534 15.0969Z" fill="#222222"/>
</svg>
