<svg width="22" height="24" viewBox="0 0 22 24" fill="none" xmlns="http://www.w3.org/2000/svg">
<path d="M13.6992 3.75C14.8647 4.09194 15.9274 4.76196 16.7808 5.69294C17.6342 6.62392 18.2483 7.78319 18.5618 9.05462" stroke="#222222" stroke-width="2" stroke-linecap="round" stroke-linejoin="round"/>
<path d="M12.9883 6.64746C13.6876 6.85262 14.3252 7.25464 14.8372 7.81323C15.3492 8.37182 15.7178 9.06738 15.9058 9.83024" stroke="#222222" stroke-width="2" stroke-linecap="round" stroke-linejoin="round"/>
<path d="M7.94718 11.7014C8.66032 13.2919 9.84213 14.5753 11.3033 15.346C11.4102 15.4013 11.5285 15.4252 11.6465 15.4155C11.7644 15.4058 11.878 15.3627 11.9761 15.2905L14.1276 13.7254C14.2228 13.6562 14.3322 13.6139 14.4461 13.6025C14.56 13.5911 14.6747 13.6109 14.7798 13.66L18.8049 15.5419C18.9416 15.6052 19.0558 15.7154 19.1302 15.8556C19.2045 15.9959 19.2351 16.1588 19.2173 16.3197C19.09 17.4057 18.6043 18.4039 17.851 19.1273C17.0978 19.8508 16.1286 20.2499 15.125 20.25C12.0253 20.25 9.05252 18.9067 6.86069 16.5156C4.66886 14.1245 3.4375 10.8815 3.4375 7.49997C3.43755 6.40513 3.80342 5.34786 4.46659 4.5261C5.12975 3.70435 6.04475 3.17448 7.04026 3.03569C7.18774 3.01622 7.33703 3.04956 7.46562 3.1307C7.59422 3.21183 7.69517 3.33636 7.75325 3.48552L9.47978 7.88032C9.52444 7.994 9.54264 8.11796 9.53275 8.24116C9.52287 8.36436 9.4852 8.48299 9.42312 8.58647L7.99343 10.9696C7.92836 11.0768 7.88989 11.2006 7.88179 11.3288C7.87368 11.4571 7.89621 11.5855 7.94718 11.7014V11.7014Z" stroke="#222222" stroke-width="2" stroke-linecap="round" stroke-linejoin="round"/>
</svg>
