<svg width="35" height="35" viewBox="0 0 42 42" fill="none" xmlns="http://www.w3.org/2000/svg">
<path d="M26.1533 6.5625C28.3783 7.1609 30.407 8.33343 32.0363 9.96265C33.6655 11.5919 34.838 13.6206 35.4364 15.8456" stroke="#48535F" stroke-width="4" stroke-linecap="round" stroke-linejoin="round"/>
<path d="M24.7949 11.6338C26.1299 11.9928 27.3472 12.6963 28.3247 13.6739C29.3022 14.6514 30.0057 15.8686 30.3648 17.2036" stroke="#48535F" stroke-width="4" stroke-linecap="round" stroke-linejoin="round"/>
<path d="M15.1719 20.4772C16.5333 23.2606 18.7895 25.5065 21.5791 26.8553C21.7832 26.952 22.0089 26.9939 22.2342 26.9769C22.4594 26.9598 22.6763 26.8844 22.8635 26.7581L26.9709 24.0192C27.1525 23.8981 27.3616 23.8242 27.579 23.8042C27.7964 23.7842 28.0154 23.8188 28.2161 23.9048L35.9003 27.198C36.1613 27.3089 36.3792 27.5016 36.5212 27.7471C36.6632 27.9926 36.7216 28.2777 36.6875 28.5592C36.4446 30.4597 35.5173 32.2065 34.0793 33.4726C32.6412 34.7386 30.791 35.4371 28.875 35.4372C22.9574 35.4372 17.2821 33.0864 13.0977 28.902C8.91327 24.7176 6.5625 19.0423 6.5625 13.1247C6.5626 11.2087 7.26107 9.3585 8.52712 7.92044C9.79317 6.48237 11.54 5.55509 13.4405 5.31221C13.722 5.27814 14.007 5.33649 14.2526 5.47848C14.4981 5.62046 14.6908 5.83839 14.8017 6.09942L18.0978 13.7903C18.183 13.9893 18.2178 14.2062 18.1989 14.4218C18.18 14.6374 18.1081 14.845 17.9896 15.0261L15.2602 19.1965C15.136 19.3841 15.0625 19.6007 15.047 19.8252C15.0316 20.0497 15.0746 20.2743 15.1719 20.4772V20.4772Z" stroke="#48535F" stroke-width="4" stroke-linecap="round" stroke-linejoin="round"/>
</svg>
