<svg width="12" height="12" viewBox="0 0 12 12" fill="none" xmlns="http://www.w3.org/2000/svg">
<path fill-rule="evenodd" clip-rule="evenodd" d="M8.25209 3.63641C8.25209 4.84144 7.244 5.81825 6.00038 5.81825C4.75675 5.81825 3.74866 4.84144 3.74866 3.63641C3.74866 2.43137 4.75675 1.45456 6.00038 1.45456C7.244 1.45456 8.25209 2.43137 8.25209 3.63641ZM9.75323 3.63641C9.75323 5.64472 8.073 7.27281 6.00038 7.27281C3.92775 7.27281 2.24752 5.64472 2.24752 3.63641C2.24752 1.62809 3.92775 0 6.00038 0C8.073 0 9.75323 1.62809 9.75323 3.63641ZM2.26591 7.48394C2.36971 7.40627 2.49543 7.35842 2.62656 7.35412C3.0101 7.34154 3.20495 7.42816 3.35476 7.59231C3.64388 7.90904 3.45384 8.42323 3.11383 8.68825C2.48868 9.17538 2.00531 9.81634 1.72662 10.5454H10.2734C9.99476 9.81648 9.51154 9.17567 8.88662 8.68854C8.54661 8.42352 8.35672 7.90919 8.64584 7.59246C8.79572 7.42824 8.9905 7.34169 9.37404 7.35434C9.50502 7.35871 9.63074 7.40656 9.73446 7.48416C10.9514 8.39479 11.7912 9.74034 11.9946 11.2743C12.0474 11.6727 11.7063 12 11.2918 12H0.70825C0.29371 12 -0.0474241 11.6727 0.00541609 11.2743C0.208896 9.74026 1.04886 8.39457 2.26591 7.48394Z" fill="#48535F"/>
</svg>
