<svg width="21" height="21" viewBox="0 0 21 21" fill="none" xmlns="http://www.w3.org/2000/svg">
<path d="M4.63574 18.3477L15.8846 18.1855" stroke="#48535F" stroke-width="2" stroke-linecap="round" stroke-linejoin="round"/>
<path d="M10.1519 10.7681C11.5325 10.7482 12.6355 9.61291 12.6156 8.23234C12.5957 6.85177 11.4604 5.74874 10.0798 5.76864C8.69925 5.78855 7.59622 6.92386 7.61612 8.30443C7.63603 9.685 8.77134 10.788 10.1519 10.7681Z" stroke="#48535F" stroke-width="2" stroke-linecap="round" stroke-linejoin="round"/>
<path d="M16.3652 8.17753C16.4463 13.8019 10.26 18.2666 10.26 18.2666C10.26 18.2666 3.94757 13.9822 3.86648 8.35775C3.84258 6.70032 4.47807 5.10128 5.63315 3.9124C6.78823 2.72352 8.36829 2.04219 10.0257 2.01829C11.6831 1.99439 13.2822 2.62988 14.4711 3.78496C15.6599 4.94005 16.3413 6.5201 16.3652 8.17753Z" stroke="#48535F" stroke-width="2" stroke-linecap="round" stroke-linejoin="round"/>
</svg>
