<svg width="22" height="24" viewBox="0 0 22 24" fill="none" xmlns="http://www.w3.org/2000/svg">
<path fill-rule="evenodd" clip-rule="evenodd" d="M15.1288 7.27281C15.1288 9.68288 13.2807 11.6365 11.0007 11.6365C8.72072 11.6365 6.87255 9.68288 6.87255 7.27281C6.87255 4.86275 8.72072 2.90913 11.0007 2.90913C13.2807 2.90913 15.1288 4.86275 15.1288 7.27281ZM17.8809 7.27281C17.8809 11.2894 14.8005 14.5456 11.0007 14.5456C7.20087 14.5456 4.12046 11.2894 4.12046 7.27281C4.12046 3.25618 7.20087 0 11.0007 0C14.8005 0 17.8809 3.25618 17.8809 7.27281ZM4.15417 14.9679C4.34448 14.8125 4.57496 14.7168 4.81536 14.7082C5.51852 14.6831 5.87574 14.8563 6.1504 15.1846C6.68045 15.8181 6.33204 16.8465 5.70869 17.3765C4.56258 18.3508 3.6764 19.6327 3.16548 21.0909H18.8345C18.3237 19.633 17.4378 18.3513 16.2921 17.3771C15.6688 16.847 15.3206 15.8184 15.8507 15.1849C16.1255 14.8565 16.4826 14.6834 17.1857 14.7087C17.4259 14.7174 17.6563 14.8131 17.8465 14.9683C20.0775 16.7896 21.6172 19.4807 21.9901 22.5486C22.0869 23.3454 21.4615 24 20.7017 24H1.29846C0.538468 24 -0.0869442 23.3454 0.0099295 22.5486C0.382976 19.4805 1.92291 16.7891 4.15417 14.9679Z" fill="#222222"/>
</svg>
